<!DOCTYPE svg PUBLIC "-//W3C//DTD SVG 1.1//EN" "http://www.w3.org/Graphics/SVG/1.1/DTD/svg11.dtd">
<!-- Uploaded to: SVG Repo, www.svgrepo.com, Transformed by: SVG Repo Mixer Tools -->
<svg fill="#000000" height="800px" width="800px" version="1.1" id="Layer_1" xmlns="http://www.w3.org/2000/svg" xmlns:xlink="http://www.w3.org/1999/xlink" viewBox="-12.8 -12.8 153.60 153.60" xml:space="preserve">
<g id="SVGRepo_bgCarrier" stroke-width="0">
<rect x="-12.8" y="-12.8" width="153.60" height="153.60" rx="76.8" fill="#fafafa" strokewidth="0"/>
</g>
<g id="SVGRepo_tracerCarrier" stroke-linecap="round" stroke-linejoin="round"/>
<g id="SVGRepo_iconCarrier"> <path d="M44.7,46.3c-2.1-13.7,17.6-17.8,20.8-3.9l5.4,26.8l20.1,0c5.8,0,8.9,4.7,8.9,9v36.4c0,8.9-12.6,8.8-12.6-0.2V86.2H61.6 c-6,0-9.7-4.1-10.6-8.8L44.7,46.3z"/> <path d="M54.1,30.3c6.5,0,11.8-5.2,11.9-11.8C66,12,60.7,6.7,54.1,6.7c-6.5,0-11.8,5.2-11.8,11.7C42.3,25,47.5,30.3,54.1,30.3"/> <path d="M28.4,60.6c-1.4-7.6,8.6-9.4,10-1.8l4.4,23.9c1,5,4.6,9.2,9.8,10.8c1.6,0.5,3.3,0.5,4.8,0.6l14.5,0.1 c7.7,0,7.7,10.1-0.1,10.1l-15.2-0.1c-2.3,0-4.7-0.3-7-1c-9-2.7-15.3-10.1-16.9-18.7L28.4,60.6z"/> </g>
</svg>